HIERARCHY
ROOT pelvis
{
  OFFSET 0 100 0
  CHANNELS 6 Xposition Yposition Zposition Zrotation Xrotation Yrotation
  JOINT pelvis_right_femur
  {
    OFFSET -10.78128 -3.44521 -0.5502486
    CHANNELS 3 Zrotation Xrotation Yrotation
    JOINT right_femur_tibia
    {
      OFFSET -0.8047443 -44.0398 -0.1307829
      CHANNELS 3 Zrotation Xrotation Yrotation
      JOINT right_tibia_foot
      {
        OFFSET 3.006224 -47.83518 -5
        CHANNELS 3 Zrotation Xrotation Yrotation
        End Site
        {
          OFFSET 0 -5 15
        }
      }
    }
  }
  JOINT pelvis_left_femur
  {
    OFFSET 10.78128 -3.44521 -0.5502486
    CHANNELS 3 Zrotation Xrotation Yrotation
    JOINT left_femur_tibia
    {
      OFFSET 0.8047443 -44.0398 -0.1307829
      CHANNELS 3 Zrotation Xrotation Yrotation
      JOINT left_tibia_foot
      {
        OFFSET -4.370144 -48.10324 -4.275266
        CHANNELS 3 Zrotation Xrotation Yrotation
        End Site
        {
          OFFSET 0 -5 15
        }
      }
    }
  }
  JOINT pelvis_spine1
  {
    OFFSET 0 6.468898 -3.129235
    CHANNELS 3 Zrotation Xrotation Yrotation
    JOINT spine1
    {
      OFFSET 0 23.15396 4.99043
      CHANNELS 3 Zrotation Xrotation Yrotation
      JOINT spine2
      {
        OFFSET 0 20.79997 -5.064912
        CHANNELS 3 Zrotation Xrotation Yrotation
        JOINT neck
        {
          OFFSET 0 14.38658 9.616178
          CHANNELS 3 Zrotation Xrotation Yrotation
          End Site
          {
            OFFSET 0 20 0
          }
        }
      }
      JOINT right_manubrium
      {
        OFFSET -5.722621 16.35077 3.967754
        CHANNELS 3 Zrotation Xrotation Yrotation
        JOINT right_clavicle
        {
          OFFSET -13.16364 1.694482 -4.693211
          CHANNELS 3 Zrotation Xrotation Yrotation
          JOINT right_humerus
          {
            OFFSET -28.5034 -0.3100689 -2.792744
            CHANNELS 3 Zrotation Xrotation Yrotation
            JOINT right_radius
            {
              OFFSET -25.15693 0.02248979 -1.271978
              CHANNELS 3 Zrotation Xrotation Yrotation
              End Site
              {
                OFFSET -15 0 0
              }
            }
          }
        }
      }
      JOINT left_manubrium
      {
        OFFSET 5.722621 16.35077 3.967754
        CHANNELS 3 Zrotation Xrotation Yrotation
        JOINT left_clavicle
        {
          OFFSET 13.16364 1.694482 -4.693211
          CHANNELS 3 Zrotation Xrotation Yrotation
          JOINT left_humerus
          {
            OFFSET 29.39168 -1.063119 -2.237045
            CHANNELS 3 Zrotation Xrotation Yrotation
            JOINT left_radius
            {
              OFFSET 24.59957 -0.9528479 0.9047498
              CHANNELS 3 Zrotation Xrotation Yrotation
              End Site
              {
                OFFSET 15 -0 -0
              }
            }
          }
        }
      }
    }
  }
}
MOTION
Frames: 21
Frame Time: 0.0416666666667
0 103.5113 0 2.563099 0.7496487 0.1028406 3.134265 -16.09506 10.77458 -0 36.57968 -0 -3.657963 -19.45485 -2.683769 -9.460578 9.702361 -22.67542 -0 4.240248 -0 22.80886 -9.128794 31.04134 -2.301147 -1.959093 4.632447 2.860257 10.20054 -7.448147 1.481532 21.03423 6.72748 2.884491 -25.0718 9.775172 5.91954 -18.46343 11.52908 86.48155 37.8975 -18.69459 -0 0 13.27712 -7.570844 9.204 4.864328 5.794561 -20.08816 -1.47742 -90.66276 20.51563 19.66705 0 0 -17.29302 13.39231 12.61069 -1.696718
0.3830989 103.5282 1.642532 1.9938 1.365502 0.1931052 4.406658 -18.85332 11.61553 -0 36.60024 -0 -3.894363 -18.46377 -2.659386 -9.259766 9.628582 -22.34687 -0 4.928724 -0 24.25397 -8.85594 31.72412 -2.30092 -1.930542 4.43297 3.055744 10.01785 -7.609657 1.49394 20.77934 6.961618 2.972615 -25.8845 10.17276 5.755564 -18.60753 11.43382 87.2089 38.06275 -19.71527 -0 0 12.87896 -6.580532 8.75343 4.385648 6.065532 -20.08266 -1.690878 -90.21406 20.63966 19.24 0 0 -19.23837 14.02917 11.85203 -2.233173
0.7125629 103.3266 3.457562 1.280621 0.7786899 0.3014242 4.634924 -20.97226 9.480141 -0 34.03159 -0 -4.720346 -15.55098 -2.57631 -8.054069 10.9714 -22.11505 -0 5.19015 -0 16.87195 -13.89708 28.89535 -2.241362 -1.761757 4.401854 3.015034 10.14554 -7.552148 1.483814 20.83709 6.909959 2.964879 -25.60885 10.03256 5.797086 -18.42658 11.48123 87.25704 38.24317 -19.6684 -0 0 12.44037 -6.824436 8.883912 4.646438 5.882893 -20.1004 -1.917121 -89.85622 20.57988 18.92286 0 0 -19.61091 13.95766 11.59391 -2.056793
1.028705 103.0269 5.519024 0.8208136 0.8550778 0.3818451 5.099968 -23.35935 8.401274 -0 31.67765 -0 -5.194925 -13.32188 -2.179441 -7.558484 11.48674 -21.50129 -0 5.693285 -0 14.56324 -15.81396 27.56556 -2.193484 -1.720531 4.341798 3.063799 10.15021 -7.601137 1.477216 20.77694 6.959552 2.985809 -25.78277 10.0919 5.760194 -18.41606 11.46848 87.52651 38.2498 -20.07705 -0 0 12.13527 -6.589188 8.803545 4.597868 5.911044 -20.16816 -2.070937 -89.65174 20.81748 18.73999 0 0 -20.44925 14.00649 11.30708 -1.932813
1.330786 102.6082 7.911065 0.2852751 1.205423 0.477909 5.746381 -26.43865 7.482836 -0 28.73311 -0 -5.66435 -10.78957 -1.759194 -7.061557 12.01324 -20.68595 -0 6.369891 -0 12.53753 -17.66047 26.16551 -2.134684 -1.729376 4.320241 3.102234 10.16564 -7.658666 1.466049 20.72835 6.996876 2.998199 -25.94821 10.13449 5.734876 -18.43413 11.45602 87.74776 38.14513 -20.48376 -0 0 11.93201 -6.380807 8.750955 4.540561 5.94501 -20.27292 -2.167963 -89.62409 21.2224 18.73912 0 0 -21.07652 13.9072 11.16659 -1.605905
1.622938 102.0787 10.70099 -0.1284146 1.663803 0.6187015 6.256203 -29.24262 6.529768 -0 25.457 -0 -6.094859 -8.395952 -1.210286 -6.73459 12.49462 -19.74314 -0 7.267466 -0 11.31388 -18.86751 24.85376 -2.069811 -1.737833 4.296056 3.141348 10.18287 -7.720985 1.453005 20.67447 7.039006 3.01454 -26.11849 10.1768 5.708725 -18.45162 11.44295 87.98958 38.03757 -20.92465 -0 0 11.70747 -6.166717 8.699419 4.48572 5.98123 -20.39072 -2.276038 -89.58747 21.66229 18.73194 0 0 -21.7689 13.78887 11.01311 -1.236001
1.903275 101.4748 13.97691 -0.5223214 2.2194 0.8350678 6.707796 -31.80069 5.552793 -0 21.94059 -0 -6.565616 -6.053475 -0.6435827 -6.444932 13.04602 -18.68839 -0 8.638306 -0 10.16026 -19.71746 23.34039 -1.999241 -1.740487 4.277059 3.170512 10.21532 -7.779438 1.43648 20.62923 7.074322 3.031182 -26.24381 10.19475 5.691476 -18.45457 11.43561 88.22156 37.93171 -21.3483 -0 0 11.46791 -6.008713 8.676471 4.463009 6.000339 -20.52049 -2.390816 -89.55099 22.1136 18.7274 0 0 -22.42972 13.62105 10.87253 -0.8013347
2.168927 100.8599 17.80593 -0.8820666 2.741422 1.145301 7.026334 -33.59293 4.520408 -0 18.59282 -0 -7.095228 -3.961709 -0.1284337 -6.171938 13.63923 -17.56606 -0 10.72109 -0 8.816334 -20.06394 21.51888 -1.925848 -1.72469 4.259087 3.186841 10.27027 -7.829935 1.415343 20.59766 7.098357 3.04752 -26.29554 10.17493 5.68652 -18.42756 11.43858 88.43926 37.84957 -21.73137 -0 0 11.19188 -5.944395 8.696365 4.494344 5.990118 -20.65814 -2.521969 -89.47831 22.52646 18.68641 0 0 -23.04989 13.41309 10.72776 -0.3272184
2.416628 100.3339 22.2397 -1.248438 3.14212 1.552591 7.270553 -34.30522 3.509897 -0 15.79946 -0 -7.70561 -2.235383 0.2359898 -5.846795 14.19684 -16.38305 -0 13.87836 -0 6.976853 -19.76971 19.26492 -1.852592 -1.68967 4.246949 3.186042 10.35412 -7.870231 1.388021 20.58616 7.10506 3.061137 -26.25105 10.10457 5.697191 -18.36581 11.45489 88.62663 37.78799 -22.04735 -0 0 10.8911 -6.010702 8.772824 4.592365 5.943148 -20.80246 -2.662954 -89.3771 22.87954 18.61503 0 0 -23.56393 13.14949 10.59202 0.1903145
2.645348 100.0149 27.27552 -1.634975 3.283216 2.024329 7.51711 -33.61917 2.642664 -0 14.01168 -0 -8.398225 -1.009826 0.3691963 -5.415911 14.49442 -15.1532 -0 18.43788 -0 4.582446 -18.60966 16.63209 -1.782866 -1.63598 4.246931 3.163903 10.47103 -7.897894 1.353363 20.59982 7.088883 3.06972 -26.09368 9.973587 5.724251 -18.26914 11.48622 88.76616 37.73847 -22.26935 -0 0 10.58612 -6.239335 8.914302 4.765839 5.854862 -20.94987 -2.805362 -89.26096 23.15551 18.52648 0 0 -23.9064 12.81382 10.47699 0.7557508
2.857382 100.0143 32.83297 -2.034076 3.02728 2.479073 7.849315 -31.42602 2.037579 -0 13.48232 -0 -9.171799 -0.3335419 0.2507148 -4.83809 14.16084 -13.87387 -0 24.66091 -0 1.832193 -16.40759 13.85737 -1.720414 -1.565523 4.268574 3.114799 10.62246 -7.908141 1.311062 20.64314 7.04391 3.070836 -25.81105 9.774263 5.765622 -18.14358 11.5327 88.83316 37.68654 -22.36175 -0 0 10.31222 -6.658043 9.123047 5.021176 5.722916 -21.09222 -2.937686 -89.15307 23.3418 18.4462 0 0 -24.00499 12.38712 10.39499 1.375417
3.058539 100.3948 38.73681 -2.378462 2.27315 2.785515 8.246623 -27.89495 1.707817 -0 14.03474 -0 -10.00012 -0.1742228 -0.03521054 -4.134361 12.72068 -12.5436 -0 32.51515 -0 -0.7659234 -13.22801 11.37867 -1.669095 -1.48014 4.322305 3.032845 10.80494 -7.893402 1.262283 20.71808 6.96518 3.062578 -25.39914 9.504073 5.815159 -18.00154 11.59264 88.79863 37.61569 -22.28307 -0 0 10.11358 -7.283248 9.391564 5.362506 5.548476 -21.21577 -3.048988 -89.07534 23.42815 18.40129 0 0 -23.80548 11.85723 10.35031 2.048825
3.255631 101.142 44.7482 -2.536791 1.033668 2.802282 8.530625 -23.41751 1.50966 -0 14.91178 -0 -10.79431 -0.4805892 -0.3252937 -3.416786 9.784369 -11.17265 -0 41.50843 -0 -2.621432 -9.547828 9.646689 -1.632455 -1.38129 4.417246 2.913088 11.00939 -7.843674 1.210034 20.8231 6.849413 3.043727 -24.86337 9.166893 5.863141 -17.86051 11.66299 88.63215 37.50948 -21.98996 -0 0 10.03625 -8.11567 9.702364 5.79217 5.336475 -21.30214 -3.131234 -89.04075 23.40565 18.41202 0 0 -23.28726 11.22466 10.33646 2.764143
3.452534 102.1721 50.64687 -2.357034 -0.5222815 2.45744 8.436052 -18.39547 1.226295 -0 15.05242 -0 -11.37515 -1.262283 -0.4929309 -2.858984 5.326585 -9.805948 -0 50.55802 -0 -3.387066 -6.207826 8.926424 -1.612819 -1.271024 4.559076 2.753135 11.22144 -7.748796 1.158983 20.95241 6.696235 3.01402 -24.21998 8.773894 5.897915 -17.74084 11.73978 88.30894 37.35198 -21.4483 -0 0 10.11982 -9.135707 10.02972 6.308645 5.09601 -21.33212 -3.180558 -89.051 23.27125 18.48806 0 0 -22.47328 10.50353 10.3378 3.500849
3.645041 103.3683 56.31518 -1.769754 -2.130961 1.810922 7.822264 -13.05085 0.7586767 -0 13.80802 -0 -11.54177 -2.516446 -0.5604105 -2.560157 -0.1811259 -8.503567 -0 58.06731 -0 -3.16562 -4.019365 9.228686 -1.610722 -1.152751 4.750359 2.552849 11.42432 -7.600081 1.114592 21.09744 6.507783 2.973936 -23.49141 8.340712 5.908507 -17.66285 11.81889 87.8133 37.12713 -20.63809 -0 0 10.39447 -10.3086 10.34496 6.906251 4.838447 -21.28937 -3.196087 -89.10197 23.0312 18.63304 0 0 -21.41613 9.713973 10.33683 4.239069
3.81706 104.591 61.74646 -0.8890944 -3.566068 1.028162 6.862089 -7.512984 0.2452719 -0 11.4922 -0 -11.23029 -4.055179 -0.654489 -2.380569 -5.987497 -7.270093 -0 62.20057 -0 -2.398561 -3.274217 10.36825 -1.625341 -1.031326 4.993161 2.312235 11.60162 -7.389636 1.082287 21.24974 6.28673 2.924063 -22.69879 7.882846 5.886241 -17.64562 11.89657 87.13474 36.81792 -19.54621 -0 0 10.88658 -11.59571 10.62115 7.577433 4.574662 -21.16074 -3.176824 -89.1921 22.6992 18.85304 0 0 -20.17008 8.873165 10.32201 4.966335
3.951699 105.642 66.981 -0.01580001 -4.705055 0.277624 5.978239 -2.049362 -0.06097568 -0 9.099253 -0 -10.59917 -5.603993 -0.8460912 -1.931462 -11.46766 -6.021165 -0 61.41109 -0 -1.568481 -3.573723 12.01035 -1.655659 -0.9119514 5.290332 2.029984 11.73797 -7.10843 1.067672 21.40281 6.033952 2.864292 -21.85546 7.412693 5.825199 -17.70603 11.96992 86.26173 36.40717 -18.1545 -0 0 11.62386 -12.9619 10.83463 8.315893 4.312918 -20.93339 -3.119951 -89.32261 22.28672 19.15657 0 0 -18.77395 7.995073 10.29037 5.672273
4.060994 106.2675 72.06002 0.5003072 -5.475754 -0.3614235 5.539761 2.931387 -0.04343794 -0 7.457416 -0 -9.906171 -7.190383 -1.06732 -0.8302577 -16.30093 -4.679454 -0 55.18125 -0 -0.9948475 -4.14928 13.73363 -1.700641 -0.7988657 5.641869 1.705542 11.81879 -6.748119 1.077394 21.55114 5.748763 2.79387 -20.96675 6.941226 5.72316 -17.85522 12.03685 85.18867 35.8812 -16.4474 -0 0 12.62675 -14.36851 10.96522 9.113464 4.059171 -20.59464 -3.023233 -89.48855 21.79702 19.54307 0 0 -17.26293 7.097584 10.24446 6.339287
4.19839 106.2601 77.04791 0.4623108 -5.808191 -0.9180567 5.596426 7.136749 0.1959913 -0 6.743226 -0 -9.301215 -9.216557 -1.170375 0.9446787 -20.33722 -3.323488 -0 44.60949 -0 -0.7974823 -4.384445 15.18822 -1.757523 -0.6945512 6.038004 1.343825 11.83271 -6.309034 1.118792 21.68787 5.432852 2.712982 -20.03661 6.482479 5.584163 -18.09142 12.0954 83.94051 35.23693 -14.44833 -0 0 13.88506 -15.75828 11.00007 9.948515 3.819166 -20.13926 -2.890097 -89.67305 21.23392 19.99241 0 0 -15.69337 6.204949 10.18922 6.945578
4.430187 105.587 82.07416 -0.04523576 -5.690134 -1.475612 5.845956 10.57443 0.4756388 -0 6.736209 -0 -8.749477 -11.92398 -1.039768 2.908895 -23.43687 -2.240716 -0 32.2902 -0 -0.9239749 -4.130543 16.25523 -1.819797 -0.5989935 6.453545 0.9597279 11.77796 -5.810435 1.197144 21.80496 5.095762 2.624872 -19.07794 6.056785 5.421654 -18.39143 12.143 82.59856 34.49444 -12.26287 -0 0 15.33088 -17.04766 10.94205 10.77336 3.599727 -19.58125 -2.733576 -89.8526 20.62002 20.46482 0 0 -14.15174 5.34353 10.13251 7.478072
4.800595 104.4264 87.32917 -0.6880571 -5.253617 -2.099446 5.820375 13.47667 0.696746 -0 7.371862 -0 -8.124804 -14.80909 -0.6623494 4.278836 -25.45578 -1.819986 -0 21.34495 -0 -1.215814 -3.671336 17.04509 -1.87752 -0.5084463 6.846821 0.5803556 11.6693 -5.295818 1.311547 21.89745 4.757667 2.536276 -18.12165 5.689598 5.259678 -18.70501 12.17692 81.30251 33.71159 -10.0928 -0 0 16.82173 -18.13689 10.81775 11.51341 3.407118 -18.96231 -2.576685 -90.00589 20.00494 20.90623 0 0 -12.7385 4.541358 10.08683 7.935835
